<svg width="154" height="154" viewBox="0 0 154 154" fill="none" xmlns="http://www.w3.org/2000/svg">
<mask id="path-1-inside-1_12708_12" fill="white">
<path d="M154 -6.73155e-06C133.776 -5.84755e-06 113.751 3.98333 95.0667 11.7226C76.3826 19.4618 59.4058 30.8053 45.1055 45.1056C30.8053 59.4058 19.4618 76.3826 11.7225 95.0668C3.98332 113.751 -8.49955e-06 133.776 -6.73155e-06 154L154 154L154 -6.73155e-06Z"/>
</mask>
<path d="M154 -6.73155e-06C133.776 -5.84755e-06 113.751 3.98333 95.0667 11.7226C76.3826 19.4618 59.4058 30.8053 45.1055 45.1056C30.8053 59.4058 19.4618 76.3826 11.7225 95.0668C3.98332 113.751 -8.49955e-06 133.776 -6.73155e-06 154L154 154L154 -6.73155e-06Z" stroke="#212121" stroke-width="2" mask="url(#path-1-inside-1_12708_12)"/>
</svg>
